<mxfile host="app.diagrams.net" agent="Mozilla/5.0 (Windows NT 10.0; Win64; x64) AppleWebKit/537.36 (KHTML, like Gecko) Chrome/128.0.0.0 Safari/537.36" version="24.7.12">
  <diagram name="Halaman-1" id="cclnr0MV8SFVgnPYZ3Cp">
    <mxGraphModel dx="1592" dy="386" grid="1" gridSize="10" guides="1" tooltips="1" connect="1" arrows="1" fold="1" page="1" pageScale="1" pageWidth="827" pageHeight="1169" background="#CCFFFF" math="0" shadow="1">
      <root>
        <mxCell id="0" />
        <mxCell id="1" parent="0" />
        <mxCell id="2" value="User" style="shape=umlLifeline;perimeter=lifelinePerimeter;whiteSpace=wrap;container=1;dropTarget=0;collapsible=0;recursiveResize=0;outlineConnect=0;portConstraint=eastwest;newEdgeStyle={&quot;edgeStyle&quot;:&quot;elbowEdgeStyle&quot;,&quot;elbow&quot;:&quot;vertical&quot;,&quot;curved&quot;:0,&quot;rounded&quot;:0};size=65;labelBackgroundColor=none;fillColor=#182E3E;strokeColor=#FFFFFF;fontColor=#FFFFFF;rounded=0;" parent="1" vertex="1">
          <mxGeometry width="150" height="1044" as="geometry" />
        </mxCell>
        <mxCell id="3" value="Platform" style="shape=umlLifeline;perimeter=lifelinePerimeter;whiteSpace=wrap;container=1;dropTarget=0;collapsible=0;recursiveResize=0;outlineConnect=0;portConstraint=eastwest;newEdgeStyle={&quot;edgeStyle&quot;:&quot;elbowEdgeStyle&quot;,&quot;elbow&quot;:&quot;vertical&quot;,&quot;curved&quot;:0,&quot;rounded&quot;:0};size=65;labelBackgroundColor=none;fillColor=#182E3E;strokeColor=#FFFFFF;fontColor=#FFFFFF;rounded=0;" parent="1" vertex="1">
          <mxGeometry x="275" width="150" height="1044" as="geometry" />
        </mxCell>
        <mxCell id="4" value="Canteen" style="shape=umlLifeline;perimeter=lifelinePerimeter;whiteSpace=wrap;container=1;dropTarget=0;collapsible=0;recursiveResize=0;outlineConnect=0;portConstraint=eastwest;newEdgeStyle={&quot;edgeStyle&quot;:&quot;elbowEdgeStyle&quot;,&quot;elbow&quot;:&quot;vertical&quot;,&quot;curved&quot;:0,&quot;rounded&quot;:0};size=65;labelBackgroundColor=none;fillColor=#182E3E;strokeColor=#FFFFFF;fontColor=#FFFFFF;rounded=0;" parent="1" vertex="1">
          <mxGeometry x="575" width="150" height="1044" as="geometry" />
        </mxCell>
        <mxCell id="5" value="Database" style="shape=umlLifeline;perimeter=lifelinePerimeter;whiteSpace=wrap;container=1;dropTarget=0;collapsible=0;recursiveResize=0;outlineConnect=0;portConstraint=eastwest;newEdgeStyle={&quot;edgeStyle&quot;:&quot;elbowEdgeStyle&quot;,&quot;elbow&quot;:&quot;vertical&quot;,&quot;curved&quot;:0,&quot;rounded&quot;:0};size=65;labelBackgroundColor=none;fillColor=#182E3E;strokeColor=#FFFFFF;fontColor=#FFFFFF;rounded=0;" parent="1" vertex="1">
          <mxGeometry x="830" width="150" height="1044" as="geometry" />
        </mxCell>
        <mxCell id="6" value="Menampilkan daftar menu" style="verticalAlign=bottom;edgeStyle=elbowEdgeStyle;elbow=vertical;curved=0;rounded=0;endArrow=block;labelBackgroundColor=none;strokeColor=#23445D;fontColor=default;" parent="1" source="2" target="3" edge="1">
          <mxGeometry relative="1" as="geometry">
            <Array as="points">
              <mxPoint x="221" y="107" />
            </Array>
          </mxGeometry>
        </mxCell>
        <mxCell id="7" value="Meminta daftar menu" style="verticalAlign=bottom;edgeStyle=elbowEdgeStyle;elbow=vertical;curved=0;rounded=0;endArrow=block;labelBackgroundColor=none;strokeColor=#23445D;fontColor=default;" parent="1" source="3" target="4" edge="1">
          <mxGeometry relative="1" as="geometry">
            <Array as="points">
              <mxPoint x="509" y="159" />
            </Array>
          </mxGeometry>
        </mxCell>
        <mxCell id="8" value="Mengambil daftar menu" style="verticalAlign=bottom;edgeStyle=elbowEdgeStyle;elbow=vertical;curved=0;rounded=0;endArrow=block;labelBackgroundColor=none;strokeColor=#23445D;fontColor=default;" parent="1" source="4" target="5" edge="1">
          <mxGeometry relative="1" as="geometry">
            <Array as="points">
              <mxPoint x="786" y="211" />
            </Array>
          </mxGeometry>
        </mxCell>
        <mxCell id="9" value="Menyediakan daftar menu" style="verticalAlign=bottom;edgeStyle=elbowEdgeStyle;elbow=vertical;curved=0;rounded=0;dashed=1;dashPattern=2 3;endArrow=block;labelBackgroundColor=none;strokeColor=#23445D;fontColor=default;" parent="1" source="5" target="4" edge="1">
          <mxGeometry relative="1" as="geometry">
            <Array as="points">
              <mxPoint x="789" y="263" />
            </Array>
          </mxGeometry>
        </mxCell>
        <mxCell id="10" value="Memberikan daftar menu" style="verticalAlign=bottom;edgeStyle=elbowEdgeStyle;elbow=vertical;curved=0;rounded=0;dashed=1;dashPattern=2 3;endArrow=block;labelBackgroundColor=none;strokeColor=#23445D;fontColor=default;" parent="1" source="4" target="3" edge="1">
          <mxGeometry relative="1" as="geometry">
            <Array as="points">
              <mxPoint x="512" y="315" />
            </Array>
          </mxGeometry>
        </mxCell>
        <mxCell id="11" value="Memilih menu dan jumlah" style="verticalAlign=bottom;edgeStyle=elbowEdgeStyle;elbow=vertical;curved=0;rounded=0;endArrow=block;labelBackgroundColor=none;strokeColor=#23445D;fontColor=default;" parent="1" source="2" target="3" edge="1">
          <mxGeometry relative="1" as="geometry">
            <Array as="points">
              <mxPoint x="221" y="367" />
            </Array>
          </mxGeometry>
        </mxCell>
        <mxCell id="12" value="Mengirim pesanan menu" style="verticalAlign=bottom;edgeStyle=elbowEdgeStyle;elbow=vertical;curved=0;rounded=0;endArrow=block;labelBackgroundColor=none;strokeColor=#23445D;fontColor=default;" parent="1" source="3" target="4" edge="1">
          <mxGeometry relative="1" as="geometry">
            <Array as="points">
              <mxPoint x="509" y="419" />
            </Array>
          </mxGeometry>
        </mxCell>
        <mxCell id="13" value="Memproses pesanan" style="verticalAlign=bottom;edgeStyle=elbowEdgeStyle;elbow=vertical;curved=0;rounded=0;endArrow=block;labelBackgroundColor=none;strokeColor=#23445D;fontColor=default;" parent="1" source="4" target="5" edge="1">
          <mxGeometry relative="1" as="geometry">
            <Array as="points">
              <mxPoint x="786" y="471" />
            </Array>
          </mxGeometry>
        </mxCell>
        <mxCell id="14" value="Konfirmasi pesanan" style="verticalAlign=bottom;edgeStyle=elbowEdgeStyle;elbow=vertical;curved=0;rounded=0;dashed=1;dashPattern=2 3;endArrow=block;labelBackgroundColor=none;strokeColor=#23445D;fontColor=default;" parent="1" source="5" target="4" edge="1">
          <mxGeometry relative="1" as="geometry">
            <Array as="points">
              <mxPoint x="789" y="523" />
            </Array>
          </mxGeometry>
        </mxCell>
        <mxCell id="15" value="Konfirmasi pesanan" style="verticalAlign=bottom;edgeStyle=elbowEdgeStyle;elbow=vertical;curved=0;rounded=0;dashed=1;dashPattern=2 3;endArrow=block;labelBackgroundColor=none;strokeColor=#23445D;fontColor=default;" parent="1" source="4" target="3" edge="1">
          <mxGeometry relative="1" as="geometry">
            <Array as="points">
              <mxPoint x="512" y="575" />
            </Array>
          </mxGeometry>
        </mxCell>
        <mxCell id="16" value="Melakukan pembayaran" style="verticalAlign=bottom;edgeStyle=elbowEdgeStyle;elbow=vertical;curved=0;rounded=0;endArrow=block;labelBackgroundColor=none;strokeColor=#23445D;fontColor=default;" parent="1" source="2" target="3" edge="1">
          <mxGeometry relative="1" as="geometry">
            <Array as="points">
              <mxPoint x="221" y="627" />
            </Array>
          </mxGeometry>
        </mxCell>
        <mxCell id="17" value="Mengirim informasi pembayaran" style="verticalAlign=bottom;edgeStyle=elbowEdgeStyle;elbow=vertical;curved=0;rounded=0;endArrow=block;labelBackgroundColor=none;strokeColor=#23445D;fontColor=default;" parent="1" edge="1">
          <mxGeometry relative="1" as="geometry">
            <Array as="points">
              <mxPoint x="509" y="710" />
            </Array>
            <mxPoint x="349.6304347826085" y="710" as="sourcePoint" />
            <mxPoint x="649.5" y="710" as="targetPoint" />
          </mxGeometry>
        </mxCell>
        <mxCell id="18" value="Memproses pembayaran" style="verticalAlign=bottom;edgeStyle=elbowEdgeStyle;elbow=vertical;curved=0;rounded=0;endArrow=block;labelBackgroundColor=none;strokeColor=#23445D;fontColor=default;" parent="1" source="4" target="5" edge="1">
          <mxGeometry relative="1" as="geometry">
            <Array as="points">
              <mxPoint x="786" y="731" />
            </Array>
          </mxGeometry>
        </mxCell>
        <mxCell id="19" value="Verifikasi pembayaran" style="verticalAlign=bottom;edgeStyle=elbowEdgeStyle;elbow=vertical;curved=0;rounded=0;dashed=1;dashPattern=2 3;endArrow=block;labelBackgroundColor=none;strokeColor=#23445D;fontColor=default;" parent="1" source="5" target="4" edge="1">
          <mxGeometry relative="1" as="geometry">
            <Array as="points">
              <mxPoint x="789" y="783" />
            </Array>
          </mxGeometry>
        </mxCell>
        <mxCell id="20" value="Status pembayaran" style="verticalAlign=bottom;edgeStyle=elbowEdgeStyle;elbow=vertical;curved=0;rounded=0;dashed=1;dashPattern=2 3;endArrow=block;labelBackgroundColor=none;strokeColor=#23445D;fontColor=default;" parent="1" source="4" target="3" edge="1">
          <mxGeometry relative="1" as="geometry">
            <Array as="points">
              <mxPoint x="512" y="835" />
            </Array>
          </mxGeometry>
        </mxCell>
        <mxCell id="21" value="Menerima notifikasi pesanan" style="verticalAlign=bottom;edgeStyle=elbowEdgeStyle;elbow=vertical;curved=0;rounded=0;endArrow=block;labelBackgroundColor=none;strokeColor=#23445D;fontColor=default;" parent="1" source="2" target="3" edge="1">
          <mxGeometry relative="1" as="geometry">
            <Array as="points">
              <mxPoint x="221" y="887" />
            </Array>
          </mxGeometry>
        </mxCell>
        <mxCell id="22" value="Menampilkan status pesanan" style="verticalAlign=bottom;edgeStyle=elbowEdgeStyle;elbow=vertical;curved=0;rounded=0;endArrow=block;labelBackgroundColor=none;strokeColor=#23445D;fontColor=default;" parent="1" source="3" target="2" edge="1">
          <mxGeometry relative="1" as="geometry">
            <Array as="points">
              <mxPoint x="224" y="939" />
            </Array>
          </mxGeometry>
        </mxCell>
        <mxCell id="ar7cjklksiLk-khIRVn8-22" value="Proses Pemesanan" style="swimlane;whiteSpace=wrap;html=1;" parent="1" vertex="1">
          <mxGeometry x="-350" y="560" width="390" height="200" as="geometry" />
        </mxCell>
        <mxCell id="ar7cjklksiLk-khIRVn8-23" value="&lt;div style=&quot;&quot;&gt;&lt;span style=&quot;background-color: initial;&quot;&gt;Dimulai dari&lt;/span&gt;&lt;/div&gt;&lt;div style=&quot;&quot;&gt;User melakukan pemesanan, melihat menu, memilih menu,&lt;/div&gt;&lt;div style=&quot;&quot;&gt;menu disampaikan ke kantin,&lt;/div&gt;&lt;div style=&quot;&quot;&gt;kantin menerima pesanan, pesanan di konfirmasi,&lt;/div&gt;&lt;div style=&quot;&quot;&gt;pesanan diperlukan pembayaran&amp;nbsp;&lt;/div&gt;" style="text;html=1;align=center;verticalAlign=middle;resizable=0;points=[];autosize=1;strokeColor=none;fillColor=none;" parent="ar7cjklksiLk-khIRVn8-22" vertex="1">
          <mxGeometry x="25" y="60" width="340" height="90" as="geometry" />
        </mxCell>
        <mxCell id="TalEjA85LHQBltSTru9h-22" value="Metode Pembayaran" style="verticalAlign=bottom;edgeStyle=elbowEdgeStyle;elbow=vertical;curved=0;rounded=0;endArrow=block;labelBackgroundColor=none;strokeColor=#23445D;fontColor=default;" edge="1" parent="1">
          <mxGeometry relative="1" as="geometry">
            <Array as="points">
              <mxPoint x="226" y="659.57" />
            </Array>
            <mxPoint x="80" y="659.57" as="sourcePoint" />
            <mxPoint x="355" y="659.57" as="targetPoint" />
          </mxGeometry>
        </mxCell>
        <mxCell id="TalEjA85LHQBltSTru9h-23" value="Cash or Qris" style="verticalAlign=bottom;edgeStyle=elbowEdgeStyle;elbow=vertical;curved=0;rounded=0;endArrow=block;labelBackgroundColor=none;strokeColor=#23445D;fontColor=default;" edge="1" parent="1" target="4">
          <mxGeometry relative="1" as="geometry">
            <Array as="points">
              <mxPoint x="496" y="669.57" />
            </Array>
            <mxPoint x="350" y="669.57" as="sourcePoint" />
            <mxPoint x="625" y="669.57" as="targetPoint" />
          </mxGeometry>
        </mxCell>
        <mxCell id="TalEjA85LHQBltSTru9h-24" value="Konfirmasi Pembayaran" style="verticalAlign=bottom;edgeStyle=elbowEdgeStyle;elbow=vertical;curved=0;rounded=0;endArrow=block;labelBackgroundColor=none;strokeColor=#23445D;fontColor=default;" edge="1" parent="1" target="5">
          <mxGeometry relative="1" as="geometry">
            <Array as="points">
              <mxPoint x="786" y="690" />
            </Array>
            <mxPoint x="660" y="690" as="sourcePoint" />
            <mxPoint x="940" y="690.43" as="targetPoint" />
          </mxGeometry>
        </mxCell>
      </root>
    </mxGraphModel>
  </diagram>
</mxfile>
